<svg width="1140" height="1000" viewBox="0 0 1140 1000" fill="none" xmlns="http://www.w3.org/2000/svg">
<g clip-path="url(#clip0_7_2)">
<rect width="1140" height="1000" fill="#F0F0F0"/>
<path fill-rule="evenodd" clip-rule="evenodd" d="M800 1000H1040C1095.23 1000 1140 955.228 1140 900V100C1140 44.7715 1095.23 0 1040 0H800L405.634 500L800 1000Z" fill="#16CD8B"/>
<rect width="1000" height="592" transform="translate(548 1000) rotate(-90)" fill="#16CD8B"/>
<path d="M956.568 828H912.642V797.335H956.568V828Z" fill="#2C2C2C"/>
<path d="M960 679.975C960 693.679 957.598 706.147 952.793 717.38C947.76 728.388 941.011 737.936 932.546 746.024C923.852 754.111 914.015 760.402 903.033 764.895C891.823 769.163 879.926 771.297 867.343 771.297C850.413 771.297 834.97 767.478 821.015 759.84C806.83 752.202 795.506 741.531 787.041 727.827C778.347 714.123 774 698.06 774 679.638C774 661.216 778.347 645.378 787.041 632.124C795.506 618.644 806.716 608.198 820.672 600.784C834.627 593.371 849.613 589.664 865.627 589.664C868.373 589.664 871.004 589.776 873.52 590.001C875.808 590.225 877.753 590.45 879.354 590.675V731.87C889.878 731.197 899.144 728.388 907.151 723.446C914.93 718.279 921.107 711.764 925.683 703.901C930.03 696.038 932.203 687.613 932.203 678.627C932.203 668.742 929.686 659.419 924.653 650.658C919.62 641.671 912.985 635.606 904.749 632.461L914.015 600.784C922.708 604.603 930.601 610.444 937.694 618.307C944.557 625.946 950.048 635.044 954.166 645.603C958.055 656.162 960 667.619 960 679.975ZM854.303 732.881V626.395C844.007 627.069 834.97 629.989 827.192 635.156C819.184 640.099 813.007 646.502 808.661 654.364C804.085 662.003 801.797 670.54 801.797 679.975C801.797 689.186 804.085 697.723 808.661 705.586C813.007 713.224 819.184 719.514 827.192 724.457C834.97 729.399 844.007 732.207 854.303 732.881Z" fill="#2C2C2C"/>
<path d="M777.089 545.116L838.517 503.331L844.351 500.298L838.517 497.265L777.089 455.816V415.715L867 479.068L956.568 415.041V455.142L895.483 497.265L889.993 500.298L895.483 503.331L956.568 545.453V585.554L867.343 521.528L777.089 584.88V545.116Z" fill="#2C2C2C"/>
<path d="M960 318.311C960 332.015 957.598 344.484 952.793 355.716C947.76 366.724 941.011 376.272 932.546 384.36C923.852 392.447 914.015 398.738 903.033 403.231C891.823 407.499 879.926 409.634 867.343 409.634C850.413 409.634 834.97 405.814 821.015 398.176C806.83 390.538 795.506 379.867 787.041 366.163C778.347 352.459 774 336.396 774 317.974C774 299.553 778.347 283.714 787.041 270.46C795.506 256.98 806.716 246.534 820.672 239.12C834.627 231.707 849.613 228 865.627 228C868.373 228 871.004 228.112 873.52 228.337C875.808 228.562 877.753 228.786 879.354 229.011V370.207C889.878 369.533 899.144 366.724 907.151 361.782C914.93 356.615 921.107 350.1 925.683 342.237C930.03 334.374 932.203 325.95 932.203 316.963C932.203 307.079 929.686 297.755 924.653 288.994C919.62 280.008 912.985 273.942 904.749 270.797L914.015 239.12C922.708 242.94 930.601 248.781 937.694 256.643C944.557 264.282 950.048 273.38 954.166 283.939C958.055 294.498 960 305.955 960 318.311ZM854.303 371.218V264.731C844.007 265.405 834.97 268.326 827.192 273.493C819.184 278.435 813.007 284.838 808.661 292.701C804.085 300.339 801.797 308.876 801.797 318.311C801.797 327.522 804.085 336.059 808.661 343.922C813.007 351.56 819.184 357.851 827.192 362.793C834.97 367.735 844.007 370.544 854.303 371.218Z" fill="#2C2C2C"/>
<path d="M0 0H225.352V375L529.577 0H800L405.634 500L800 1000H529.577L225.352 625V1000H0V0Z" fill="#16A1CD"/>
</g>
<defs>
<clipPath id="clip0_7_2">
<rect width="1140" height="1000" fill="white"/>
</clipPath>
</defs>
</svg>
